PathFileType	4	(X/Y/Z)	C:/Users/opensim2020/Desktop/walking_exp_matlab/subject02_walking15_straight_02.trc																																																																																																																												
DataRate	CameraRate	NumFrames	NumMarkers	Units	OrigDataRate	OrigDataStartFrame	OrigNumFrames																																																																																																																								
100	100	8	42	mm	100	941	142																																																																																																																								
Frame#	Time	LFHD			RFHD			LBHD			RBHD			C7			T10			CLAV			STRN			RBAK			LSHO			LUPA			LELB			LFRM			LWRA			LWRB			LFIN			RSHO			RUPA			RELB			RFRM			RWRA			RWRB			RFIN			LASI			RASI			LPSI			RPSI			LTHI			LKNE			LTIB			LANK			LHEE			LTOE			RTHI			RKNE			RTIB			RANK			RHEE			RTOE			*39			*40			*41		
		X1	Y1	Z1	X2	Y2	Z2	X3	Y3	Z3	X4	Y4	Z4	X5	Y5	Z5	X6	Y6	Z6	X7	Y7	Z7	X8	Y8	Z8	X9	Y9	Z9	X10	Y10	Z10	X11	Y11	Z11	X12	Y12	Z12	X13	Y13	Z13	X14	Y14	Z14	X15	Y15	Z15	X16	Y16	Z16	X17	Y17	Z17	X18	Y18	Z18	X19	Y19	Z19	X20	Y20	Z20	X21	Y21	Z21	X22	Y22	Z22	X23	Y23	Z23	X24	Y24	Z24	X25	Y25	Z25	X26	Y26	Z26	X27	Y27	Z27	X28	Y28	Z28	X29	Y29	Z29	X30	Y30	Z30	X31	Y31	Z31	X32	Y32	Z32	X33	Y33	Z33	X34	Y34	Z34	X35	Y35	Z35	X36	Y36	Z36	X37	Y37	Z37	X38	Y38	Z38	X39	Y39	Z39	X40	Y40	Z40	X41	Y41	Z41	X42	Y42	Z42
																																																																																																																															
72	0.71	2.09817	1751.052	958.8208	-2.24032	1736.01978	1102.13342	-124.52316	1670.66943	947.6142	-141.55499	1654.18335	1090.86597	-177.0379	1530.43079	1014.91998	-221.81747	1254.84436	1025.94653	-33.74159	1469.32678	1012.69891	22.91831	1299.13501	1028.88013	-235.08989	1356.75183	1079.82532	-95.21472	1505.39478	839.6709	-93.85938	1305.78003	754.05273	-92.65193	1165.59656	736.10547	-68.0947	1035.66199	723.22021	-1.47285	916.01611	756.94611	-44.1558	914.74268	720.37689	-17.40099	855.06732	715.22614	-114.67239	1505.63672	1202.95459	-140.99837	1321.45667	1297.40833	-114.00352	1177.4364	1329.35535	-64.7651	1065.32898	1346.04834	-0.64712	947.20856	1319.22632	-39.29444	937.68762	1359.8407	5.10583	879.13745	1352.17822	10.02356	997.61798	909.60602	3.53279	990.44055	1160.39795	-200.01549	1041.24402	979.45282	-207.211	1041.59595	1094.9397	-55.13384	678.01758	863.79315	-91.64131	477.85367	901.85815	-160.09306	294.09155	908.10321	-172.67294	73.45033	952.92914	-209.17325	47.52382	1006.01953	-18.08083	33.80218	935.68066	-30.12709	685.98785	1252.22485	15.89492	490.80649	1241.4209	-99.76406	349.37497	1219.74365	-193.96478	187.22821	1166.20715	-228.00862	150.07155	1096.46375	-103.87074	65.67068	1217.37891	-105.36549	1814.0752	1043.3241	-2846.09253	1034.31335	3357.4126	NaN	NaN	NaN
73	0.72	15.88621	1750.48889	958.92712	11.51751	1735.36401	1102.05627	-111.06287	1670.44006	947.47351	-127.90379	1653.69739	1090.75867	-163.6115	1530.0564	1014.70508	-209.09346	1254.80347	1025.65198	-20.34418	1468.84485	1012.62677	35.78532	1298.43701	1028.40637	-222.02496	1356.68091	1079.53577	-81.74605	1505.2063	839.60815	-76.5868	1305.83582	754.32788	-71.9254	1165.25671	736.22321	-41.24928	1035.73657	725.49854	29.97056	920.01111	761.72455	-12.26575	916.25085	724.7984	16.94911	857.72626	720.82043	-100.7365	1504.92285	1203.04785	-129.50993	1321.21753	1297.74683	-105.48087	1176.61328	1328.59497	-59.82422	1063.06555	1345.46289	-1.14194	941.64465	1317.99927	-38.80462	934.56287	1359.7262	2.30512	873.43567	1351.13647	20.58187	996.08527	908.47156	16.3992	989.96643	1158.61279	-188.19434	1041.08643	980.12878	-194.91374	1041.68005	1095.70898	-48.30594	677.26141	864.22382	-88.15586	477.61548	902.07471	-158.10234	294.45676	908.33563	-172.43625	73.6998	953.21814	-208.68233	47.82632	1006.30194	-18.01567	33.70655	935.52789	-12.12765	686.97729	1252.40845	37.8205	491.90793	1240.25757	-70.93346	343.91187	1220.57715	-157.24802	177.04488	1168.39075	-190.20352	137.54831	1099.03357	-59.33621	61.48576	1218.58167	-91.46755	1813.73938	1043.55432	-2845.87598	1034.46472	3357.43604	NaN	NaN	NaN
74	0.73	29.68575	1749.69812	958.84058	25.25115	1734.45972	1102.08704	-97.29211	1669.7074	947.46143	-114.26358	1653.00696	1090.72778	-149.94688	1529.6073	1014.69727	-196.40846	1254.58081	1025.55872	-7.11262	1467.91675	1012.6723	48.62405	1297.36987	1028.09314	-208.96436	1356.72546	1079.7915	-68.14993	1504.68494	839.61499	-59.53653	1305.72156	754.41656	-50.99817	1164.91833	736.45795	-15.13553	1036.5437	727.44354	61.02308	924.79071	766.59381	18.98762	918.09369	729.19055	51.37093	861.02667	726.64929	-86.93509	1503.87805	1203.3634	-118.07319	1320.42175	1297.37817	-97.06448	1175.42786	1327.64783	-54.99065	1060.65833	1344.71753	-1.37625	936.37665	1316.97607	-38.3321	931.58868	1359.77881	-0.38682	868.2146	1350.38342	31.08742	994.5116	907.44684	29.7354	989.37903	1157.00098	-176.44241	1040.80383	980.95715	-182.53964	1041.42615	1096.63635	-41.58173	676.60187	864.58081	-84.48953	477.30429	902.33246	-156.27921	294.83743	908.729	-172.153	73.97135	953.52081	-208.87454	48.12164	1006.7356	-17.94205	33.65777	935.37622	5.76246	687.78491	1252.52844	59.18498	492.49548	1239.0083	-42.02069	338.20212	1221.67688	-119.9164	166.56044	1170.90112	-151.43318	124.70493	1102.31458	-14.23401	57.87738	1220.24854	-77.68275	1812.90381	1043.58569	-2846.04761	1034.38452	3357.42847	NaN	NaN	NaN
75	0.74	43.70891	1748.78357	959.10077	39.02295	1733.29285	1102.18018	-83.47187	1668.99756	947.55865	-100.5549	1652.03613	1090.70996	-136.28566	1528.89612	1014.66284	-183.56023	1253.99524	1025.61633	6.44556	1466.7688	1012.80084	61.50597	1295.93225	1027.89966	-195.84431	1356.21021	1079.71765	-54.30648	1503.89758	839.72833	-42.57432	1305.3728	754.58771	-30.74615	1164.44312	736.42322	10.76877	1036.8739	729.89056	91.99897	929.98883	771.20172	50.35543	920.47327	733.99243	85.34942	865.1377	732.44537	-72.94117	1502.74084	1203.53931	-106.89856	1319.48218	1297.25635	-88.76421	1174.06787	1326.77844	-50.28869	1058.1936	1344.10803	-0.8991	932.16693	1316.5	-37.78403	928.63092	1359.81055	-3.09928	863.40112	1350.09021	42.27429	992.8653	906.19733	42.98244	988.23254	1155.89014	-164.56528	1040.27979	981.92651	-170.13333	1040.82886	1097.74084	-34.64517	675.76678	864.99567	-80.70271	476.9939	902.60437	-154.50136	295.34628	909.33661	-171.90953	74.28623	953.86768	-207.63847	47.93582	1007.08698	-17.93977	33.5825	935.2207	23.47548	688.39368	1252.54285	79.82434	492.89841	1237.9967	-13.02683	332.24536	1223.08386	-81.82948	156.29262	1174.05444	-111.74064	112.01295	1106.04346	31.40893	55.13106	1222.43274	-63.79397	1811.9585	1043.65625	-2846.03125	1034.49036	3357.1792	NaN	NaN	NaN
76	0.75	57.49248	1747.09668	959.45886	52.82174	1731.88391	1102.24915	-69.74538	1667.42212	947.71436	-86.77804	1650.75403	1090.68188	-122.49255	1527.95117	1014.68573	-170.76379	1253.28149	1025.86072	20.26027	1465.40149	1012.87457	74.42378	1294.19604	1027.82251	-182.6723	1355.28772	1079.61353	-40.22045	1502.89661	839.78381	-26.09459	1304.87756	754.66107	-10.3254	1163.60974	736.61633	36.56566	1038.08545	732.16815	122.40223	935.83344	775.89392	81.27849	923.5506	738.50092	118.77953	869.68494	738.50708	-58.86365	1501.23901	1203.83032	-95.89146	1318.33167	1297.08984	-80.46512	1172.44739	1325.76941	-45.66641	1055.52588	1343.62524	-0.72445	927.83899	1316.3999	-37.24281	926.13342	1360.23938	-5.45758	859.15332	1350.06714	53.26228	990.87659	905.1673	56.2436	986.7757	1155.13501	-152.75241	1039.53613	983.03687	-157.53134	1039.84998	1098.93164	-27.89721	674.88562	865.51202	-76.58602	476.54535	902.888	-152.69437	295.85596	909.8667	-171.65433	74.62932	954.20496	-207.27386	48.6771	1007.28546	-17.91701	33.55598	935.09351	40.89912	688.78522	1252.52869	99.80429	492.82767	1236.81873	15.80893	326.37622	1224.37659	-43.28817	146.36736	1177.79285	-71.30932	99.79461	1110.76636	77.15929	53.17631	1224.99194	-49.95576	1810.73682	1043.76196	-2845.96167	1034.60791	3357.2666	NaN	NaN	NaN
77	0.76	71.01851	1745.74036	959.30054	66.63742	1730.27209	1102.43945	-56.06684	1666.28357	947.70856	-73.05045	1649.26538	1090.82007	-108.45912	1526.74939	1014.93433	-157.87891	1252.24561	1026.29504	33.86221	1463.63184	1013.1416	87.38992	1292.21777	1027.81287	-169.38055	1354.29382	1079.24536	-25.95168	1501.62109	840.06799	-9.47203	1304.15063	754.76019	9.63154	1163.10767	736.72308	62.15974	1039.44727	734.56012	152.12291	941.82288	780.61755	112.16662	926.96759	743.44189	151.69107	874.90472	744.50293	-44.70081	1499.43713	1204.32141	-85.11002	1317.14941	1297.26294	-72.29969	1170.89612	1325.09546	-40.99665	1053.33459	1343.62988	-0.41205	923.83411	1316.52563	-36.55749	923.51141	1360.62744	-7.59788	855.24176	1350.37659	64.24094	988.66925	904.28479	69.56398	985.06848	1154.59778	-140.91963	1038.52466	984.35223	-144.82047	1038.48145	1100.23425	-21.20444	673.8031	865.95154	-72.44949	476.1011	903.28986	-150.70811	296.34836	910.58228	-171.4198	75.02782	954.54297	-207.38026	49.12828	1007.70087	-17.8454	33.49017	934.94922	57.94328	688.8714	1252.43726	118.98676	492.35239	1235.66492	44.32361	320.64197	1225.8678	-3.8822	136.78429	1181.89355	-29.81792	87.8625	1115.39746	122.9456	52.09631	1228.02271	-36.1421	1809.19641	1043.8197	-2846.05225	1034.44031	3357.22485	NaN	NaN	NaN
78	0.77	85.00482	1744.20264	959.47565	80.44156	1728.46069	1102.58386	-42.31653	1664.59241	947.92456	-59.53442	1647.3584	1091.18652	-94.8204	1525.14966	1014.94	-144.94997	1250.93469	1026.95593	47.62551	1461.62598	1013.53241	100.43479	1289.9259	1027.96387	-156.08661	1352.8313	1079.46545	-11.52068	1500.1134	840.38837	7.23042	1303.21497	754.90161	29.31581	1162.29541	736.69	87.0373	1040.62769	736.84784	180.74724	948.06299	785.54858	141.55199	930.90082	748.1546	184.46098	881.18542	750.35504	-30.73823	1497.64966	1204.65649	-74.35954	1315.56348	1296.57996	-64.10919	1169.31909	1324.51477	-36.37858	1051.0022	1343.65479	-0.00805	919.90381	1316.85974	-35.72156	921.4386	1361.2937	-9.22844	851.72424	1351.10657	75.16069	986.3584	903.43463	83.01151	983.0354	1154.46167	-128.93893	1037.02112	985.82263	-132.0127	1036.69739	1101.62341	-14.41394	672.80267	866.43451	-68.08153	475.63474	903.70264	-148.55356	296.83252	911.14081	-171.19917	75.46963	954.91315	-207.15269	49.68533	1008.1701	-17.7732	33.42442	934.82239	74.62696	688.59692	1252.25867	137.25888	491.52521	1234.48132	72.72613	314.98181	1227.43323	35.76351	127.89027	1186.84204	12.00311	76.7599	1120.98523	168.48952	52.16159	1231.4375	-22.20495	1807.24219	1043.86682	-2845.9292	1034.52991	3357.05933	NaN	NaN	NaN
79	0.78	99.33305	1741.93835	960.13806	94.30437	1726.46948	1102.78406	-27.85795	1662.69885	948.16986	-45.59302	1645.67725	1091.14355	-80.97517	1523.49341	1015.28564	-131.87949	1249.37695	1027.80798	61.42846	1459.1532	1014.0943	113.52718	1287.41565	1028.22058	-142.82684	1351.13062	1079.91382	2.98693	1498.31592	840.84991	23.68606	1301.82971	754.99689	48.89064	1161.39368	736.57831	112.48257	1042.17432	739.3374	209.21201	955.27283	789.87683	171.59955	935.47064	753.1571	215.90631	887.37134	756.38055	-16.57824	1495.4552	1205.21838	-63.60576	1313.79187	1296.00195	-55.95426	1167.87732	1324.40564	-31.64608	1048.7085	1343.57935	0.936	916.53503	1317.63354	-34.92455	919.53607	1362.13147	-10.76251	848.95258	1352.20313	86.69376	983.91528	902.85712	96.52966	980.85431	1154.52209	-117.16893	1035.1333	987.5036	-119.12598	1034.56458	1103.19531	-7.35743	671.72302	866.94922	-63.51262	475.10349	904.27411	-146.12784	297.3602	911.88147	-170.87918	75.99215	955.25067	-206.86217	50.58163	1008.82349	-17.69886	33.34383	934.6748	90.92442	687.86871	1252.14478	154.63591	490.27954	1233.23608	100.16301	310.12085	1229.3949	75.53984	119.93832	1191.83203	54.24538	66.81097	1126.85193	213.73734	53.27005	1235.33545	-8.3057	1805.42456	1044.16589	-2845.95215	1034.2627	3356.98389	NaN	NaN	NaN
